<?xml version="1.0" encoding="UTF-8"?>
<svg version="1.1" xmlns="http://www.w3.org/2000/svg" width="1024" height="1024">
<path d="M0 0 C49.37469532 -1.43682976 101.30250421 6.24943175 148.02832031 22.11474609 C151.23032924 23.17191038 154.45275575 24.08076789 157.70751953 24.95800781 C168.58381591 27.89919598 178.81284393 32.45070473 189.14331055 36.89697266 C191.70321439 37.97984307 194.27742997 39.00760265 196.86621094 40.01904297 C202.68148913 42.32865291 208.31983273 44.98168723 213.95996094 47.68701172 C215.05179688 48.21045166 216.14363281 48.7338916 217.26855469 49.27319336 C225.87560142 53.45457261 234.11155893 58.0708299 242.26269531 63.07226562 C244.35758098 64.34058499 246.49409045 65.5212482 248.64746094 66.68701172 C259.61680953 72.74627094 269.74182363 79.70616379 279.83105469 87.10888672 C282.1535512 88.81125135 284.47657947 90.44404803 286.88183594 92.03076172 C290.96541871 94.78136151 294.82902341 97.7845567 298.70996094 100.81201172 C299.51095215 101.43599854 300.31194336 102.05998535 301.13720703 102.70288086 C305.8479111 106.39496354 310.46757633 110.14009015 314.86694336 114.20288086 C316.75741509 115.93378651 318.67752846 117.6198784 320.61621094 119.29638672 C324.92710305 123.06007735 329.11224851 126.94558083 333.27246094 130.87451172 C334.01415527 131.57447266 334.75584961 132.27443359 335.52001953 132.99560547 C342.959283 140.03700394 350.33123765 147.08559884 356.99511719 154.87841797 C358.90427043 157.06982795 360.86725408 159.20521472 362.84472656 161.33496094 C383.74783103 183.87514165 401.68370507 209.50360195 416.83837891 236.21191406 C418.05015711 238.32875482 419.28795826 240.4293931 420.52636719 242.53076172 C431.28350479 260.90417303 440.35760377 279.8310843 447.984375 299.70507812 C448.87901455 302.01439635 449.801304 304.31055589 450.73339844 306.60498047 C454.80272962 316.68903002 458.10912567 326.87681064 461.10302734 337.32714844 C461.95145315 340.24788165 462.8338675 343.15692624 463.72167969 346.06591797 C467.00021372 356.88610858 469.77699379 367.49105434 471.49658203 378.65966797 C471.95398401 381.40073706 472.49300071 384.11906267 473.04199219 386.84326172 C485.38289387 448.60450992 483.93090902 510.91263529 471.05436707 572.42803955 C470.25878469 576.23753574 469.53806088 580.04982151 468.88574219 583.88623047 C467.88750764 589.48504703 466.34908336 594.87101696 464.70996094 600.31201172 C464.40098877 601.34777344 464.0920166 602.38353516 463.77368164 603.45068359 C463.13126823 605.6010814 462.48664826 607.75082123 461.83984375 609.89990234 C460.94851581 612.89070013 460.08655205 615.8882621 459.23339844 618.89013672 C455.40974051 632.15572613 450.52900038 644.74668191 445.03051758 657.40405273 C443.95569877 659.92539563 442.94190104 662.46241665 441.94433594 665.01513672 C435.16114421 682.10391906 426.42397276 698.36752142 416.89746094 714.06201172 C416.41857422 714.85784668 415.9396875 715.65368164 415.44628906 716.47363281 C402.39645502 738.158367 388.27885925 760.18779839 370.97949219 778.76513672 C368.81021524 781.15826025 366.82167244 783.64093485 364.83496094 786.18701172 C361.72835326 790.13191035 358.41063483 793.65696545 354.81152344 797.15185547 C353.00823529 798.95146344 351.35650561 800.80691344 349.70996094 802.74951172 C342.7508677 810.82589056 335.03428571 818.43286805 326.90917969 825.33154297 C324.41462491 827.47734446 322.00527112 829.70786849 319.58496094 831.93701172 C306.76332557 843.61228354 292.94127122 854.05336321 278.72119141 863.9519043 C275.79439009 865.99280896 272.93221384 868.03403143 270.15136719 870.27294922 C268.09550335 871.90481341 266.15895863 873.11195125 263.83496094 874.31201172 C260.0824234 876.33117513 256.59679413 878.58627556 253.08496094 880.99951172 C248.17484346 884.3227091 243.192963 887.02243499 237.85449219 889.58544922 C234.99629433 891.0126603 232.31041693 892.5850509 229.58496094 894.24951172 C214.61131367 903.09668631 198.46407539 909.9283579 182.25439453 916.14892578 C179.9450763 917.04356533 177.64891677 917.96585478 175.35449219 918.89794922 C165.27197335 922.96666269 155.08535508 926.27360439 144.63671875 929.26757812 C141.70359075 930.11823753 138.78091153 930.99981841 135.85839844 931.88623047 C133.78814816 932.5075316 131.71783665 933.12862872 129.64746094 933.74951172 C128.71466309 934.03503906 127.78186523 934.32056641 126.82080078 934.61474609 C119.29961156 936.84382664 111.7026785 938.33321198 103.98834229 939.69204712 C101.92701111 940.05678305 99.86788849 940.43208523 97.80908203 940.81079102 C70.64308806 945.791685 43.55183757 949.38545205 15.89746094 950.06201172 C15.19347168 950.08392578 14.48948242 950.10583984 13.76416016 950.12841797 C-22.12712772 951.16598832 -57.82543907 946.09780693 -92.83886719 938.70825195 C-95.91218328 938.0997041 -98.98066776 937.61205194 -102.07910156 937.15185547 C-109.04786456 936.02402985 -115.64475247 933.91072751 -122.35253906 931.74951172 C-123.64650989 931.33809755 -124.94070174 930.92737795 -126.23510742 930.51733398 C-128.75106145 929.71969986 -131.26571748 928.91834453 -133.77978516 928.11474609 C-136.4606476 927.26537954 -139.14456487 926.43875751 -141.84082031 925.64013672 C-151.63769438 922.71808644 -161.01536954 919.00424638 -170.46435547 915.11987305 C-173.42249686 913.93371474 -176.40379054 912.81842446 -179.38769531 911.69873047 C-186.20851311 909.08450755 -192.78169391 906.05945246 -199.35253906 902.87451172 C-200.52478027 902.30861328 -201.69702148 901.74271484 -202.90478516 901.15966797 C-211.07249703 897.16851202 -218.96493911 892.87698129 -226.71582031 888.13232422 C-229.41724172 886.48093628 -232.12458465 884.92854664 -234.91503906 883.43701172 C-239.58346965 880.88977095 -243.92973152 877.87888257 -248.32910156 874.89794922 C-250.39742473 873.52877754 -252.41857808 872.28573975 -254.60253906 871.12451172 C-259.04641752 868.67606412 -262.97404483 865.48123685 -267.00097656 862.41357422 C-269.79752501 860.29326923 -272.62538235 858.23147804 -275.47753906 856.18701172 C-284.58792275 849.57803396 -293.52508344 842.69751517 -301.84472656 835.10888672 C-303.83172742 833.30752262 -305.84381923 831.54371475 -307.86816406 829.78466797 C-311.9844639 826.18922554 -315.99626234 822.49340647 -319.97753906 818.74951172 C-321.01962524 817.77002563 -321.01962524 817.77002563 -322.08276367 816.77075195 C-329.43481625 809.83715748 -336.69089967 802.86628734 -343.26660156 795.17919922 C-345.45460076 792.65601717 -347.71547019 790.20646652 -349.97753906 787.74951172 C-361.65281088 774.92787635 -372.09389055 761.105822 -381.99243164 746.88574219 C-384.0333363 743.95894087 -386.07455878 741.09676462 -388.31347656 738.31591797 C-389.94534075 736.26005413 -391.1524786 734.32350941 -392.35253906 731.99951172 C-394.37170247 728.24697418 -396.6268029 724.76134491 -399.04003906 721.24951172 C-402.36323644 716.33939424 -405.06296233 711.35751378 -407.62597656 706.01904297 C-409.05318765 703.16084511 -410.62557824 700.47496771 -412.29003906 697.74951172 C-421.13721366 682.77586445 -427.96888524 666.62862617 -434.18945312 650.41894531 C-435.08409267 648.10962708 -436.00638212 645.81346755 -436.93847656 643.51904297 C-441.00780774 633.43499342 -444.3142038 623.2472128 -447.30810547 612.796875 C-448.15653127 609.87614179 -449.03894563 606.96709719 -449.92675781 604.05810547 C-453.20529185 593.23791486 -455.98207192 582.6329691 -457.70166016 571.46435547 C-458.15906213 568.72328638 -458.69807884 566.00496077 -459.24707031 563.28076172 C-471.08484243 504.04201013 -470.80009305 443.36316751 -458.72167969 384.17529297 C-458.11257928 381.11249787 -457.56088052 378.04453064 -457.02441406 374.96826172 C-453.89644587 357.49898658 -448.65591962 340.88004893 -443.10253906 324.06201172 C-442.67448791 322.74516516 -442.24683732 321.42818834 -441.81958008 320.11108398 C-439.50757356 313.02334538 -437.02786797 306.08140107 -434.04003906 299.24951172 C-433.38153991 297.72257605 -432.72399029 296.19523054 -432.06738281 294.66748047 C-431.74157227 293.91249268 -431.41576172 293.15750488 -431.08007812 292.37963867 C-430.08255483 290.01463152 -429.14238763 287.63228946 -428.20800781 285.24169922 C-425.8752721 279.377264 -423.20634163 273.6885876 -420.47753906 267.99951172 C-419.95409912 266.90767578 -419.43065918 265.81583984 -418.89135742 264.69091797 C-414.71033959 256.08461519 -410.0942129 247.8509211 -405.09228516 239.70117188 C-403.81614229 237.58769798 -402.64141661 235.4264654 -401.47753906 233.24951172 C-398.97058548 228.65491708 -396.0211213 224.3707517 -393.06738281 220.05419922 C-391.3030574 217.36737364 -389.71750533 214.62444293 -388.14086914 211.82519531 C-386.42423964 208.91019454 -384.46028405 206.17384729 -382.47753906 203.43701172 C-382.04586426 202.83727539 -381.61418945 202.23753906 -381.16943359 201.61962891 C-376.61533451 195.32867131 -371.89051201 189.17600703 -367.10253906 183.06201172 C-366.45929688 182.23443359 -365.81605469 181.40685547 -365.15332031 180.55419922 C-361.08093324 175.38047476 -356.83671295 170.36210496 -352.54003906 165.37451172 C-351.74472778 164.44759521 -351.74472778 164.44759521 -350.93334961 163.50195312 C-347.66942857 159.73971969 -344.27843485 156.16803194 -340.71264648 152.69018555 C-339.04548909 151.00432161 -337.50755876 149.24753502 -335.97753906 147.43701172 C-328.96980392 139.32195951 -321.21859633 131.66607919 -313.04785156 124.72607422 C-310.75020974 122.76062158 -308.52380783 120.72471301 -306.29003906 118.68701172 C-301.56112496 114.42453072 -296.68672148 110.37950611 -291.73046875 106.38525391 C-289.88747506 104.88719965 -288.06129164 103.36986349 -286.23535156 101.85107422 C-279.56472761 96.32677757 -272.98269926 91.09633118 -265.55175781 86.60888672 C-263.04743073 85.02720646 -260.78321492 83.29425148 -258.47753906 81.43701172 C-254.99495752 78.65711034 -251.47310674 76.51279744 -247.54003906 74.43701172 C-244.67207406 72.81918531 -242.00325214 70.98984571 -239.29003906 69.12451172 C-234.37992159 65.80131434 -229.39804113 63.10158845 -224.05957031 60.53857422 C-221.20137245 59.11136313 -218.51549505 57.53897254 -215.79003906 55.87451172 C-200.8163918 47.02733713 -184.66915351 40.19566554 -168.45947266 33.97509766 C-166.15015443 33.08045811 -163.85399489 32.15816866 -161.55957031 31.22607422 C-151.47552076 27.15674304 -141.28774014 23.85034698 -130.83740234 20.85644531 C-127.91666913 20.00801951 -125.00762454 19.12560515 -122.09863281 18.23779297 C-111.2784422 14.95925893 -100.67349644 12.18247886 -89.50488281 10.46289062 C-86.76381372 10.00548865 -84.04548811 9.46647194 -81.32128906 8.91748047 C-54.45503419 3.5532726 -27.36767095 0.80717469 0 0 Z " fill="#59B300" transform="translate(505.1025390625,36.93798828125)"/>
<path d="M0 0 C49.37469532 -1.43682976 101.30250421 6.24943175 148.02832031 22.11474609 C151.23032924 23.17191038 154.45275575 24.08076789 157.70751953 24.95800781 C168.58381591 27.89919598 178.81284393 32.45070473 189.14331055 36.89697266 C191.70321439 37.97984307 194.27742997 39.00760265 196.86621094 40.01904297 C202.68148913 42.32865291 208.31983273 44.98168723 213.95996094 47.68701172 C215.05179688 48.21045166 216.14363281 48.7338916 217.26855469 49.27319336 C225.87560142 53.45457261 234.11155893 58.0708299 242.26269531 63.07226562 C244.35758098 64.34058499 246.49409045 65.5212482 248.64746094 66.68701172 C259.61680953 72.74627094 269.74182363 79.70616379 279.83105469 87.10888672 C282.1535512 88.81125135 284.47657947 90.44404803 286.88183594 92.03076172 C290.96541871 94.78136151 294.82902341 97.7845567 298.70996094 100.81201172 C299.51095215 101.43599854 300.31194336 102.05998535 301.13720703 102.70288086 C305.8479111 106.39496354 310.46757633 110.14009015 314.86694336 114.20288086 C316.75741509 115.93378651 318.67752846 117.6198784 320.61621094 119.29638672 C324.92710305 123.06007735 329.11224851 126.94558083 333.27246094 130.87451172 C334.01415527 131.57447266 334.75584961 132.27443359 335.52001953 132.99560547 C342.959283 140.03700394 350.33123765 147.08559884 356.99511719 154.87841797 C358.90427043 157.06982795 360.86725408 159.20521472 362.84472656 161.33496094 C383.74783103 183.87514165 401.68370507 209.50360195 416.83837891 236.21191406 C418.05015711 238.32875482 419.28795826 240.4293931 420.52636719 242.53076172 C431.28350479 260.90417303 440.35760377 279.8310843 447.984375 299.70507812 C448.87901455 302.01439635 449.801304 304.31055589 450.73339844 306.60498047 C454.80272962 316.68903002 458.10912567 326.87681064 461.10302734 337.32714844 C461.95145315 340.24788165 462.8338675 343.15692624 463.72167969 346.06591797 C467.00021372 356.88610858 469.77699379 367.49105434 471.49658203 378.65966797 C471.95398401 381.40073706 472.49300071 384.11906267 473.04199219 386.84326172 C485.38289387 448.60450992 483.93090902 510.91263529 471.05436707 572.42803955 C470.25878469 576.23753574 469.53806088 580.04982151 468.88574219 583.88623047 C467.88750764 589.48504703 466.34908336 594.87101696 464.70996094 600.31201172 C464.40098877 601.34777344 464.0920166 602.38353516 463.77368164 603.45068359 C463.13126823 605.6010814 462.48664826 607.75082123 461.83984375 609.89990234 C460.94851581 612.89070013 460.08655205 615.8882621 459.23339844 618.89013672 C455.40974051 632.15572613 450.52900038 644.74668191 445.03051758 657.40405273 C443.95569877 659.92539563 442.94190104 662.46241665 441.94433594 665.01513672 C435.16114421 682.10391906 426.42397276 698.36752142 416.89746094 714.06201172 C416.41857422 714.85784668 415.9396875 715.65368164 415.44628906 716.47363281 C402.39645502 738.158367 388.27885925 760.18779839 370.97949219 778.76513672 C368.81021524 781.15826025 366.82167244 783.64093485 364.83496094 786.18701172 C361.72835326 790.13191035 358.41063483 793.65696545 354.81152344 797.15185547 C353.00823529 798.95146344 351.35650561 800.80691344 349.70996094 802.74951172 C342.7508677 810.82589056 335.03428571 818.43286805 326.90917969 825.33154297 C324.41462491 827.47734446 322.00527112 829.70786849 319.58496094 831.93701172 C306.76332557 843.61228354 292.94127122 854.05336321 278.72119141 863.9519043 C275.79439009 865.99280896 272.93221384 868.03403143 270.15136719 870.27294922 C268.09550335 871.90481341 266.15895863 873.11195125 263.83496094 874.31201172 C260.0824234 876.33117513 256.59679413 878.58627556 253.08496094 880.99951172 C248.17484346 884.3227091 243.192963 887.02243499 237.85449219 889.58544922 C234.99629433 891.0126603 232.31041693 892.5850509 229.58496094 894.24951172 C214.61131367 903.09668631 198.46407539 909.9283579 182.25439453 916.14892578 C179.9450763 917.04356533 177.64891677 917.96585478 175.35449219 918.89794922 C165.27197335 922.96666269 155.08535508 926.27360439 144.63671875 929.26757812 C141.70359075 930.11823753 138.78091153 930.99981841 135.85839844 931.88623047 C133.78814816 932.5075316 131.71783665 933.12862872 129.64746094 933.74951172 C128.71466309 934.03503906 127.78186523 934.32056641 126.82080078 934.61474609 C119.29961156 936.84382664 111.7026785 938.33321198 103.98834229 939.69204712 C101.92701111 940.05678305 99.86788849 940.43208523 97.80908203 940.81079102 C70.64308806 945.791685 43.55183757 949.38545205 15.89746094 950.06201172 C15.19347168 950.08392578 14.48948242 950.10583984 13.76416016 950.12841797 C-22.12712772 951.16598832 -57.82543907 946.09780693 -92.83886719 938.70825195 C-95.91218328 938.0997041 -98.98066776 937.61205194 -102.07910156 937.15185547 C-109.04786456 936.02402985 -115.64475247 933.91072751 -122.35253906 931.74951172 C-123.64650989 931.33809755 -124.94070174 930.92737795 -126.23510742 930.51733398 C-128.75106145 929.71969986 -131.26571748 928.91834453 -133.77978516 928.11474609 C-136.4606476 927.26537954 -139.14456487 926.43875751 -141.84082031 925.64013672 C-151.63769438 922.71808644 -161.01536954 919.00424638 -170.46435547 915.11987305 C-173.42249686 913.93371474 -176.40379054 912.81842446 -179.38769531 911.69873047 C-186.20851311 909.08450755 -192.78169391 906.05945246 -199.35253906 902.87451172 C-200.52478027 902.30861328 -201.69702148 901.74271484 -202.90478516 901.15966797 C-211.07249703 897.16851202 -218.96493911 892.87698129 -226.71582031 888.13232422 C-229.41724172 886.48093628 -232.12458465 884.92854664 -234.91503906 883.43701172 C-239.58346965 880.88977095 -243.92973152 877.87888257 -248.32910156 874.89794922 C-250.39742473 873.52877754 -252.41857808 872.28573975 -254.60253906 871.12451172 C-259.04641752 868.67606412 -262.97404483 865.48123685 -267.00097656 862.41357422 C-269.79752501 860.29326923 -272.62538235 858.23147804 -275.47753906 856.18701172 C-284.58792275 849.57803396 -293.52508344 842.69751517 -301.84472656 835.10888672 C-303.83172742 833.30752262 -305.84381923 831.54371475 -307.86816406 829.78466797 C-311.9844639 826.18922554 -315.99626234 822.49340647 -319.97753906 818.74951172 C-321.01962524 817.77002563 -321.01962524 817.77002563 -322.08276367 816.77075195 C-329.43481625 809.83715748 -336.69089967 802.86628734 -343.26660156 795.17919922 C-345.45460076 792.65601717 -347.71547019 790.20646652 -349.97753906 787.74951172 C-361.65281088 774.92787635 -372.09389055 761.105822 -381.99243164 746.88574219 C-384.0333363 743.95894087 -386.07455878 741.09676462 -388.31347656 738.31591797 C-389.94534075 736.26005413 -391.1524786 734.32350941 -392.35253906 731.99951172 C-394.37170247 728.24697418 -396.6268029 724.76134491 -399.04003906 721.24951172 C-402.36323644 716.33939424 -405.06296233 711.35751378 -407.62597656 706.01904297 C-409.05318765 703.16084511 -410.62557824 700.47496771 -412.29003906 697.74951172 C-421.13721366 682.77586445 -427.96888524 666.62862617 -434.18945312 650.41894531 C-435.08409267 648.10962708 -436.00638212 645.81346755 -436.93847656 643.51904297 C-441.00780774 633.43499342 -444.3142038 623.2472128 -447.30810547 612.796875 C-448.15653127 609.87614179 -449.03894563 606.96709719 -449.92675781 604.05810547 C-453.20529185 593.23791486 -455.98207192 582.6329691 -457.70166016 571.46435547 C-458.15906213 568.72328638 -458.69807884 566.00496077 -459.24707031 563.28076172 C-471.08484243 504.04201013 -470.80009305 443.36316751 -458.72167969 384.17529297 C-458.11257928 381.11249787 -457.56088052 378.04453064 -457.02441406 374.96826172 C-453.89644587 357.49898658 -448.65591962 340.88004893 -443.10253906 324.06201172 C-442.67448791 322.74516516 -442.24683732 321.42818834 -441.81958008 320.11108398 C-439.50757356 313.02334538 -437.02786797 306.08140107 -434.04003906 299.24951172 C-433.38153991 297.72257605 -432.72399029 296.19523054 -432.06738281 294.66748047 C-431.74157227 293.91249268 -431.41576172 293.15750488 -431.08007812 292.37963867 C-430.08255483 290.01463152 -429.14238763 287.63228946 -428.20800781 285.24169922 C-425.8752721 279.377264 -423.20634163 273.6885876 -420.47753906 267.99951172 C-419.95409912 266.90767578 -419.43065918 265.81583984 -418.89135742 264.69091797 C-414.71033959 256.08461519 -410.0942129 247.8509211 -405.09228516 239.70117188 C-403.81614229 237.58769798 -402.64141661 235.4264654 -401.47753906 233.24951172 C-398.97058548 228.65491708 -396.0211213 224.3707517 -393.06738281 220.05419922 C-391.3030574 217.36737364 -389.71750533 214.62444293 -388.14086914 211.82519531 C-386.42423964 208.91019454 -384.46028405 206.17384729 -382.47753906 203.43701172 C-382.04586426 202.83727539 -381.61418945 202.23753906 -381.16943359 201.61962891 C-376.61533451 195.32867131 -371.89051201 189.17600703 -367.10253906 183.06201172 C-366.45929688 182.23443359 -365.81605469 181.40685547 -365.15332031 180.55419922 C-361.08093324 175.38047476 -356.83671295 170.36210496 -352.54003906 165.37451172 C-351.74472778 164.44759521 -351.74472778 164.44759521 -350.93334961 163.50195312 C-347.66942857 159.73971969 -344.27843485 156.16803194 -340.71264648 152.69018555 C-339.04548909 151.00432161 -337.50755876 149.24753502 -335.97753906 147.43701172 C-328.96980392 139.32195951 -321.21859633 131.66607919 -313.04785156 124.72607422 C-310.75020974 122.76062158 -308.52380783 120.72471301 -306.29003906 118.68701172 C-301.56112496 114.42453072 -296.68672148 110.37950611 -291.73046875 106.38525391 C-289.88747506 104.88719965 -288.06129164 103.36986349 -286.23535156 101.85107422 C-279.56472761 96.32677757 -272.98269926 91.09633118 -265.55175781 86.60888672 C-263.04743073 85.02720646 -260.78321492 83.29425148 -258.47753906 81.43701172 C-254.99495752 78.65711034 -251.47310674 76.51279744 -247.54003906 74.43701172 C-244.67207406 72.81918531 -242.00325214 70.98984571 -239.29003906 69.12451172 C-234.37992159 65.80131434 -229.39804113 63.10158845 -224.05957031 60.53857422 C-221.20137245 59.11136313 -218.51549505 57.53897254 -215.79003906 55.87451172 C-200.8163918 47.02733713 -184.66915351 40.19566554 -168.45947266 33.97509766 C-166.15015443 33.08045811 -163.85399489 32.15816866 -161.55957031 31.22607422 C-151.47552076 27.15674304 -141.28774014 23.85034698 -130.83740234 20.85644531 C-127.91666913 20.00801951 -125.00762454 19.12560515 -122.09863281 18.23779297 C-111.2784422 14.95925893 -100.67349644 12.18247886 -89.50488281 10.46289062 C-86.76381372 10.00548865 -84.04548811 9.46647194 -81.32128906 8.91748047 C-54.45503419 3.5532726 -27.36767095 0.80717469 0 0 Z M-10.70361328 56.125 C-38.21165336 56.65422694 -64.36940675 60.96379419 -91.10253906 67.06201172 C-92.57811279 67.39072266 -92.57811279 67.39072266 -94.08349609 67.72607422 C-124.95010629 74.63779884 -155.07298168 86.43725922 -183.09960938 101.02587891 C-185.23538564 102.1307344 -187.38314055 103.20985733 -189.53222656 104.28857422 C-219.64058843 119.56734999 -246.91088508 139.70633818 -272.10253906 162.06201172 C-272.85784912 162.7282959 -273.61315918 163.39458008 -274.39135742 164.08105469 C-280.8561175 169.83162121 -287.04556944 175.82180653 -293.16503906 181.93701172 C-294.09380859 182.85353516 -295.02257812 183.77005859 -295.97949219 184.71435547 C-302.13007707 190.85199175 -307.68315097 197.27711384 -313.10253906 204.06201172 C-314.06151052 205.19831379 -315.02645354 206.3296436 -316.00097656 207.45263672 C-322.83415804 215.34205129 -329.05953823 223.55616199 -335.10253906 232.06201172 C-335.53501953 232.66287598 -335.9675 233.26374023 -336.41308594 233.8828125 C-347.94608867 249.93796631 -358.08213788 267.0174996 -367.29003906 284.49951172 C-367.72316406 285.3202417 -368.15628906 286.14097168 -368.60253906 286.98657227 C-371.07849366 291.78373429 -373.19182163 296.63635421 -375.14868164 301.66625977 C-376.29748461 304.55164587 -377.58524168 307.35592 -378.89233398 310.17211914 C-383.68451802 320.53995385 -387.48136361 331.18617279 -391.08276367 342.01757812 C-391.81619289 344.20715495 -392.56644299 346.39112374 -393.32739258 348.57128906 C-396.36536525 357.38468509 -398.69499781 366.18936443 -400.66503906 375.31201172 C-400.96567077 376.68337246 -401.266784 378.05462772 -401.56835938 379.42578125 C-402.15664767 382.10663544 -402.74000802 384.78849308 -403.31982422 387.47119141 C-403.97071814 390.45726369 -404.64278284 393.43643112 -405.33300781 396.41357422 C-410.11524706 417.35405225 -411.71503297 438.63123976 -412.10253906 460.06201172 C-412.13502768 461.48649981 -412.16792471 462.91097863 -412.20117188 464.33544922 C-413.38733525 518.20169024 -405.37593126 570.80109736 -386.1315918 621.328125 C-385.08278713 624.11448672 -384.08580627 626.91619585 -383.09082031 629.72216797 C-381.33706994 634.56201866 -379.29214833 639.1862921 -377.04003906 643.81201172 C-376.36048016 645.22290544 -375.68208025 646.63435802 -375.00488281 648.04638672 C-374.67738037 648.72862305 -374.34987793 649.41085937 -374.01245117 650.11376953 C-373.20746776 651.8373455 -372.46274746 653.58878714 -371.72753906 655.34326172 C-364.63507698 672.09905488 -355.18519124 687.95887201 -345.10253906 703.06201172 C-344.57128418 703.86364746 -344.0400293 704.6652832 -343.49267578 705.49121094 C-336.4683237 716.05798947 -329.08361977 726.20155564 -321.10253906 736.06201172 C-320.39484375 736.96306641 -319.68714844 737.86412109 -318.95800781 738.79248047 C-314.97931147 743.85413558 -310.82038247 748.69544558 -306.47363281 753.44482422 C-305.18770843 754.86421357 -303.90778801 756.28961752 -302.66259766 757.74487305 C-297.80798802 763.40955124 -292.62531035 768.7254034 -287.35205078 773.99780273 C-285.86360669 775.48842787 -284.3833663 776.98688189 -282.90332031 778.48583984 C-276.63007959 784.79549996 -270.07694806 790.5224643 -263.10253906 796.06201172 C-262.04029473 796.94934536 -260.98191686 797.84137063 -259.93066406 798.74169922 C-236.84082468 818.4030473 -210.7543133 834.9226734 -183.97753906 849.06201172 C-183.13707031 849.50697998 -182.29660156 849.95194824 -181.43066406 850.41040039 C-176.56046884 852.93681416 -171.6488691 855.11129483 -166.53564453 857.09716797 C-162.70456842 858.61637455 -158.97583109 860.3511954 -155.22753906 862.06201172 C-149.36159706 864.69957557 -143.5428373 867.09105323 -137.39550781 869.00732422 C-134.7685298 869.84870508 -132.18345677 870.74060596 -129.59082031 871.67919922 C-118.21968294 875.79054388 -106.85465614 879.22742668 -95.10253906 882.06201172 C-94.09352539 882.30838379 -93.08451172 882.55475586 -92.04492188 882.80859375 C-69.7218211 888.22991822 -48.02761165 891.59870921 -25.10253906 893.06201172 C-24.43743317 893.10478241 -23.77232727 893.1475531 -23.08706665 893.19161987 C37.24226114 897.00608984 96.42236267 889.70221372 153.16357422 868.09106445 C155.94993594 867.04225979 158.75164506 866.04527893 161.55761719 865.05029297 C166.39746788 863.2965426 171.02174132 861.25162099 175.64746094 858.99951172 C177.05835466 858.31995282 178.46980724 857.6415529 179.88183594 856.96435547 C180.90458618 856.47346436 180.90458618 856.47346436 181.94799805 855.97265625 C183.67876781 855.16416893 185.43706152 854.41519727 187.19824219 853.67529297 C212.47476942 842.96981393 236.0869978 827.59991095 257.89746094 811.06201172 C258.8357373 810.35117432 258.8357373 810.35117432 259.79296875 809.62597656 C282.70058775 792.16120783 306.29617685 772.4601395 323.91308594 749.58154297 C325.63282609 747.39801463 327.41144143 745.32557617 329.25292969 743.24560547 C355.47528726 713.45442187 375.79151133 678.18595037 391.89746094 642.06201172 C392.66123047 640.38365234 392.66123047 640.38365234 393.44042969 638.67138672 C397.26114536 630.06741003 400.2654516 621.30260583 403.14746094 612.35449219 C403.87366977 610.13473276 404.62911645 607.92765679 405.39746094 605.72216797 C415.63636211 576.21572859 422.98000066 544.29776863 424.89746094 513.06201172 C424.98068604 511.90491699 425.06391113 510.74782227 425.1496582 509.55566406 C425.82603732 499.7574694 426.09829347 490.00742905 426.08496094 480.18701172 C426.08468903 479.42242645 426.08441711 478.65784119 426.08413696 477.87008667 C426.03685275 448.50734839 423.78893801 419.85860353 417.89746094 391.06201172 C417.65439209 389.86600342 417.41132324 388.66999512 417.16088867 387.43774414 C413.09911854 367.75398843 407.70117008 348.97748938 400.89746094 330.06201172 C400.63408936 329.3257959 400.37071777 328.58958008 400.09936523 327.83105469 C394.74459588 313.1948086 388.13405209 298.8972049 380.94238281 285.078125 C379.81422442 282.90141191 378.70750152 280.71444113 377.60058594 278.52685547 C364.40430707 252.68757852 347.73343505 228.34584451 328.76123047 206.39697266 C326.52286 203.80227356 324.32932873 201.17343839 322.14453125 198.53338623 C316.41589416 191.64922049 310.34699761 185.20006529 303.99072266 178.89453125 C302.39083264 177.30542812 300.80201679 175.70580796 299.21386719 174.10498047 C293.52811028 168.41177689 287.70976236 163.0968703 281.40820312 158.07641602 C279.11139909 156.23365735 276.89518157 154.33392431 274.69433594 152.37841797 C238.01180184 119.98792657 192.10141251 94.83958601 145.89746094 79.06201172 C145.27228577 78.84790649 144.6471106 78.63380127 144.00299072 78.41320801 C93.4050423 61.13476657 42.46548145 55.19499143 -10.70361328 56.125 Z " fill="#FEFEFE" transform="translate(505.1025390625,36.93798828125)"/>
<path d="M0 0 C6.45881501 5.52860524 11.24072913 11.24454307 15.1875 18.7734375 C15.620625 19.55460937 16.05375 20.33578125 16.5 21.140625 C21.52423828 32.06136514 21.17915848 47.75159204 17.125 58.9609375 C11.79440198 70.44800085 5.08965205 80.12578381 -5.8125 86.7734375 C-3.56779519 96.76828103 1.25146521 106.36029299 5.24438477 115.76196289 C7.56562227 121.24449959 9.74072184 126.76575481 11.84375 132.3359375 C13.86928708 137.517544 16.06140564 142.62689362 18.23950195 147.74584961 C20.2169945 152.41093218 22.09899006 157.0905734 23.875 161.8359375 C25.95306551 167.34917253 28.42774079 172.5709978 31.1875 177.7734375 C31.84492188 177.556875 32.50234375 177.3403125 33.1796875 177.1171875 C48.49770416 172.63386555 63.79061801 174.66040671 79.1875 177.7734375 C82.69380529 170.4114013 85.90260117 163.06055568 88.7734375 155.4296875 C92.48037634 145.84489537 96.49714038 136.35018248 100.8125 127.0234375 C103.31895155 121.59839976 105.50814586 116.05564139 107.703125 110.5 C109.43581092 106.12304536 111.266203 101.78848545 113.109375 97.45703125 C114.25852791 94.59663976 115.24006561 91.70617759 116.1875 88.7734375 C115.47464844 88.27714844 114.76179688 87.78085937 114.02734375 87.26953125 C104.46119679 80.48439068 97.61411906 74.26698618 92.1875 63.7734375 C91.56294922 62.64615234 91.56294922 62.64615234 90.92578125 61.49609375 C85.76204037 50.3170477 86.12196185 33.95656692 90.25 22.4609375 C96.67651913 8.72085856 106.7427757 -2.24534966 120.78125 -8.35546875 C133.53812999 -12.97362498 148.4276152 -12.75104067 161.1875 -8.2265625 C169.07614685 -4.35271044 176.62562138 0.93383001 182.1875 7.7734375 C182.70570313 8.39089844 183.22390625 9.00835937 183.7578125 9.64453125 C191.6961111 20.19568693 194.56290895 33.82665328 193.1875 46.7734375 C190.60961403 63.01411914 183.98167292 74.98587524 170.765625 85.01953125 C160.72973891 91.84697497 151.14097917 94.00273612 139.1875 94.3984375 C138.22199219 94.43710937 137.25648438 94.47578125 136.26171875 94.515625 C133.9038256 94.60900691 131.54592244 94.69478079 129.1875 94.7734375 C128.75050781 95.95486328 128.75050781 95.95486328 128.3046875 97.16015625 C125.69595852 104.0921562 122.82242672 110.80655444 119.6640625 117.50390625 C117.72432912 121.79903016 116.07561259 126.17942676 114.4609375 130.60546875 C113.21682674 133.70048049 111.78326184 136.60663347 110.27148438 139.57543945 C108.27054443 143.63275078 106.52136772 147.7995328 104.75 151.9609375 C104.35530518 152.88422852 103.96061035 153.80751953 103.55395508 154.75878906 C100.98574895 160.80075683 98.55782265 166.8733508 96.25 173.01953125 C94.71203479 177.00580138 92.98077504 180.89635683 91.1875 184.7734375 C92.06664062 185.01835937 92.94578125 185.26328125 93.8515625 185.515625 C105.90609105 190.06077511 117.80386099 203.83975791 124.1875 214.7734375 C124.1875 216.0934375 124.1875 217.4134375 124.1875 218.7734375 C124.7858667 218.52698486 125.3842334 218.28053223 126.00073242 218.02661133 C145.89541956 209.83985109 145.89541956 209.83985109 155.8203125 206.1015625 C158.58878864 205.00958815 161.32130414 203.87080354 164.0546875 202.6953125 C164.91231689 202.32736572 165.76994629 201.95941895 166.65356445 201.58032227 C168.35283336 200.84772725 170.0494185 200.10886767 171.74291992 199.36303711 C172.51998291 199.02796143 173.2970459 198.69288574 174.09765625 198.34765625 C174.78996338 198.04432373 175.48227051 197.74099121 176.19555664 197.4284668 C178.1875 196.7734375 178.1875 196.7734375 182.1875 196.7734375 C182.1875 196.1134375 182.1875 195.4534375 182.1875 194.7734375 C182.71593506 194.58233398 183.24437012 194.39123047 183.78881836 194.19433594 C186.23543646 193.3073735 188.68021161 192.41543029 191.125 191.5234375 C191.95580078 191.22308594 192.78660156 190.92273438 193.64257812 190.61328125 C198.6589475 188.77850023 203.53817398 186.78018132 208.37719727 184.51660156 C210.1875 183.7734375 210.1875 183.7734375 212.1875 183.7734375 C211.87026978 182.95879028 211.87026978 182.95879028 211.54663086 182.12768555 C209.49082425 176.49247044 208.67172848 171.56873945 208.75 165.5859375 C208.76135986 164.35145874 208.76135986 164.35145874 208.77294922 163.09204102 C209.20169504 146.9796478 215.51813675 134.45881089 227.04296875 123.328125 C232.08933604 118.98143015 238.06417263 116.28876838 244.1875 113.7734375 C245.10660156 113.39058594 246.02570313 113.00773437 246.97265625 112.61328125 C258.47650302 109.60802359 272.51874262 110.69307684 283.1875 115.7734375 C284.115625 116.1859375 285.04375 116.5984375 286 117.0234375 C299.97984058 123.85802623 308.28633191 135.77342255 313.37890625 150.1328125 C316.55242501 164.42131241 314.69676133 178.74325964 307.1328125 191.2734375 C300.09788171 202.28894339 292.0996757 208.46635784 280.1875 213.7734375 C279.38699219 214.13824219 278.58648438 214.50304687 277.76171875 214.87890625 C264.33045541 219.54621931 249.89696356 217.02132781 237.25 211.48828125 C230.30798709 208.02691648 222.75473467 202.90790683 219.1875 195.7734375 C212.76170778 197.82817974 206.49948246 200.17344462 200.25 202.7109375 C197.73632812 203.72460938 197.73632812 203.72460938 195.22265625 204.73828125 C194.39008301 205.07520996 193.55750977 205.41213867 192.69970703 205.75927734 C190.21767158 206.76125745 187.73234885 207.7546363 185.24609375 208.74609375 C179.88020702 210.89024609 174.53327804 213.07972186 169.1875 215.2734375 C163.00314795 217.81127384 156.81161188 220.32793823 150.60253906 222.8046875 C146.74527513 224.35196037 142.90361709 225.93659303 139.0625 227.5234375 C138.29679687 227.83925781 137.53109375 228.15507812 136.7421875 228.48046875 C134.89042986 229.24431878 133.03893569 230.00880745 131.1875 230.7734375 C131.51234375 231.99353516 131.51234375 231.99353516 131.84375 233.23828125 C135.09855809 246.6342275 135.16248924 259.3065015 132.1875 272.7734375 C131.8148886 275.10328239 131.49935512 277.43452407 131.1875 279.7734375 C136.76275595 282.39905904 142.34714945 284.8754542 148.125 287.0234375 C154.82328019 289.54627009 161.29718811 292.49763052 167.80664062 295.46899414 C173.52854604 298.06655238 179.29502896 300.41052733 185.1875 302.59765625 C188.40591037 303.85903844 191.50258302 305.29104002 194.625 306.7734375 C201.3296676 309.93725375 208.17212949 312.39641541 215.1875 314.7734375 C215.4453125 314.04898437 215.703125 313.32453125 215.96875 312.578125 C221.2626702 300.39532146 233.2681475 292.6213086 245.1875 287.7734375 C259.35094469 284.47719605 275.49812976 285.27534894 287.97949219 292.86279297 C301.26514433 301.22388755 310.11340735 312.31804933 314.1875 327.7734375 C316.04051925 345.88173723 312.12097557 359.68147371 301.3203125 374.30078125 C291.74578955 385.400915 278.69718929 390.70201367 264.41796875 392.03125 C249.55538894 392.62814076 236.88004697 387.42574641 225.5625 378.1484375 C215.92281363 369.20950848 210.7175512 358.66378039 209.1875 345.7734375 C209.09854799 343.21214292 209.05731732 340.64877099 209.0625 338.0859375 C209.05992187 336.80332031 209.05734375 335.52070312 209.0546875 334.19921875 C209.15967209 331.49123379 209.37154122 329.3314035 210.1875 326.7734375 C209.300625 326.5465625 208.41375 326.3196875 207.5 326.0859375 C198.11248204 323.38490115 189.22745001 319.38163804 180.41015625 315.23046875 C177.34801339 313.84600901 174.27425593 312.63135062 171.125 311.4609375 C165.36131244 309.30217452 159.78320338 306.82761206 154.1875 304.2734375 C147.47368221 301.21021097 140.76086318 298.34562108 133.84375 295.76953125 C130.57338142 294.54314303 127.3816423 293.1848027 124.1875 291.7734375 C123.80271484 292.84851563 123.80271484 292.84851563 123.41015625 293.9453125 C117.5342929 307.53676638 104.43624144 319.49771787 91.1875 325.7734375 C94.81227366 337.05051111 98.87367423 348.14461013 103.90625 358.87109375 C105.4794932 362.43487331 106.83918738 366.05727971 108.1875 369.7109375 C111.21255052 377.90278579 114.46662242 385.96584518 118.0546875 393.9296875 C118.53723999 395.00863281 118.53723999 395.00863281 119.02954102 396.109375 C119.66387244 397.52389418 120.30472578 398.93551144 120.95288086 400.34375 C122.50031356 403.79528553 123.1875 405.92079916 123.1875 409.7734375 C124.21875 409.4434375 125.25 409.1134375 126.3125 408.7734375 C139.61325379 405.54759563 154.19413865 407.8868076 165.9375 414.8359375 C177.43959203 422.89767165 186.83763749 433.34791109 190.625 447.1484375 C193.00135843 461.80709793 191.25227324 478.09371127 182.796875 490.609375 C182.26578125 491.32351563 181.7346875 492.03765625 181.1875 492.7734375 C180.69765625 493.46695312 180.2078125 494.16046875 179.703125 494.875 C171.8191376 504.98367691 159.39302348 510.42309108 147.25 513.5234375 C130.74051263 514.87115075 116.79043113 511.35587446 103.4375 501.1484375 C93.34670563 491.7119091 86.63574394 478.38885318 85.9140625 464.5859375 C85.42711179 448.26884682 89.56164616 436.26187673 100.6875 424.0234375 C101.5125 423.2809375 102.3375 422.5384375 103.1875 421.7734375 C104.07501953 420.96712891 104.07501953 420.96712891 104.98046875 420.14453125 C109.89921694 415.7734375 109.89921694 415.7734375 112.1875 415.7734375 C111.88569824 415.03407959 111.58389648 414.29472168 111.27294922 413.53295898 C105.87095513 400.29570507 100.47297296 387.0577813 95.1875 373.7734375 C89.32836908 359.05238565 89.32836908 359.05238565 83.28515625 344.40625 C81.53761956 340.21464953 79.85955614 335.99561278 78.1875 331.7734375 C77.39730469 331.99 76.60710937 332.2065625 75.79296875 332.4296875 C59.79464438 336.37898814 43.87407874 336.00229708 28.1875 330.7734375 C27.795625 332.0109375 27.40375 333.2484375 27 334.5234375 C24.40123984 342.2720343 21.08969606 349.71796295 17.81640625 357.19921875 C16.9399617 359.20306269 16.06366342 361.20697062 15.1875 363.2109375 C14.7440625 364.22470459 14.300625 365.23847168 13.84375 366.28295898 C11.65747658 371.30526954 9.53428681 376.32515557 7.625 381.4609375 C5.21698823 387.92816911 2.36195626 394.1773985 -0.51586914 400.44604492 C-2.82362122 405.49029793 -4.97351576 410.5699015 -6.99584961 415.7355957 C-7.8125 417.7734375 -7.8125 417.7734375 -8.8125 419.7734375 C-8.07902344 420.03769531 -7.34554687 420.30195312 -6.58984375 420.57421875 C6.78419672 426.34894508 13.84362255 438.94706497 19.1875 451.7734375 C22.86998578 464.30211816 21.25749155 478.90249532 15.23828125 490.31640625 C7.45389053 503.83471932 -3.84365369 512.80195867 -18.4375 518.0859375 C-31.08969124 520.73881631 -46.78470481 519.4724348 -58.0625 513.1484375 C-66.66711179 507.41674708 -73.68199193 500.77602713 -78.8125 491.7734375 C-79.20179688 491.11601563 -79.59109375 490.45859375 -79.9921875 489.78125 C-86.40540018 478.12511892 -86.76475192 462.55456138 -83.25 449.8984375 C-78.18505612 435.66327944 -68.23317067 424.35554322 -54.69873047 417.57177734 C-44.21555713 413.13481426 -31.9764997 413.33467769 -20.8125 413.7734375 C-20.60157715 413.26594971 -20.3906543 412.75846191 -20.17333984 412.2355957 C-13.19158387 395.46688011 -13.19158387 395.46688011 -9.6875 388.0859375 C-7.56192463 383.55555569 -5.71457517 378.97178101 -4 374.2734375 C0.73739055 361.29467875 6.34438441 348.62676993 12.125 336.08203125 C13.85179768 332.33005542 15.51785935 328.55111607 17.1875 324.7734375 C15.86878906 324.40605469 15.86878906 324.40605469 14.5234375 324.03125 C1.46961011 319.10931508 -10.95666121 304.16734873 -16.8125 291.7734375 C-20.91914558 292.42105322 -24.33733509 293.76516743 -28.125 295.4609375 C-33.27860788 297.72976101 -38.46730815 299.82423307 -43.75 301.7734375 C-53.42264945 305.34879856 -62.98967906 309.1602384 -72.5 313.1484375 C-78.06874854 315.47635697 -83.65464134 317.76036099 -89.25 320.0234375 C-90.54780396 320.55396729 -90.54780396 320.55396729 -91.87182617 321.09521484 C-93.10896362 321.59335693 -93.10896362 321.59335693 -94.37109375 322.1015625 C-95.10642334 322.3996582 -95.84175293 322.69775391 -96.59936523 323.00488281 C-98.98282668 323.8325868 -101.33095014 324.33181268 -103.8125 324.7734375 C-103.65394531 325.61003906 -103.49539063 326.44664062 -103.33203125 327.30859375 C-101.17246188 341.71113536 -102.62744373 356.47618477 -111 368.7109375 C-119.93401727 380.60352819 -130.76268734 388.35805394 -145.48046875 391.30859375 C-161.99359284 393.61230039 -175.77744825 390.02903775 -189.125 380.0234375 C-199.12174888 371.59669085 -206.70233819 358.57550624 -208.04956055 345.46679688 C-209.01107984 328.30306448 -205.15439984 314.99994305 -193.8125 301.7734375 C-181.39301938 290.45865462 -168.81544311 285.25948887 -152.15625 285.59765625 C-139.33089772 286.27188622 -125.91414574 292.67179176 -116.8125 301.7734375 C-113.95613676 305.32108865 -111.33044989 308.97936042 -108.8125 312.7734375 C-100.87678283 310.78950821 -93.49909657 307.41708309 -86.04296875 304.1015625 C-78.70897992 300.84514415 -71.36285982 297.79986753 -63.82446289 295.04760742 C-58.96632762 293.25519898 -54.2289251 291.25666809 -49.5 289.1484375 C-40.45613919 285.12021526 -31.22288803 281.84052693 -21.8125 278.7734375 C-22.01746094 278.2165625 -22.22242188 277.6596875 -22.43359375 277.0859375 C-22.70300781 276.3228125 -22.97242188 275.5596875 -23.25 274.7734375 C-23.51683594 274.0309375 -23.78367187 273.2884375 -24.05859375 272.5234375 C-27.26675411 260.82113235 -27.34734389 246.31401735 -23.46875 234.83984375 C-22.66115847 232.65824345 -22.66115847 232.65824345 -22.8125 229.7734375 C-30.17563697 226.26660794 -37.52690393 223.05575239 -45.16015625 220.1875 C-52.05989811 217.51615609 -58.84922893 214.57499228 -65.65917969 211.68408203 C-68.43313105 210.51097108 -71.21607834 209.36015857 -74 208.2109375 C-78.62958678 206.28787838 -83.22281796 204.28919442 -87.8125 202.2734375 C-89.17181705 201.67955484 -90.53119129 201.08580306 -91.890625 200.4921875 C-94.38695277 199.40172503 -96.8744123 198.29627867 -99.359375 197.1796875 C-100.41640625 196.715625 -101.4734375 196.2515625 -102.5625 195.7734375 C-103.94695312 195.1546875 -103.94695312 195.1546875 -105.359375 194.5234375 C-108.16244677 193.6664474 -109.18066869 193.49963114 -111.8125 194.7734375 C-114.06570597 197.07473613 -114.06570597 197.07473613 -116.3125 199.8984375 C-124.75591917 209.70636926 -136.10244906 214.9995833 -148.8125 216.7734375 C-164.72002921 217.80793567 -178.01856498 214.49438725 -190.4375 204.0859375 C-199.12671156 195.97196991 -206.91552185 183.91856966 -207.98950195 171.77148438 C-208.52331637 151.91614032 -208.52331637 151.91614032 -203.8125 142.7734375 C-203.461875 142.01289063 -203.11125 141.25234375 -202.75 140.46875 C-196.2133297 127.35001586 -184.40598655 117.55940662 -170.703125 112.65625 C-158.57644546 109.90461388 -145.1045304 110.39628017 -133.8125 115.7734375 C-132.884375 116.1859375 -131.95625 116.5984375 -131 117.0234375 C-119.05636179 122.86254951 -110.35726123 132.65675472 -105.5625 144.98828125 C-101.68049108 156.97128795 -102.48703754 168.4439888 -103.8125 180.7734375 C-88.36609222 187.32881156 -88.36609222 187.32881156 -72.75 193.4609375 C-67.47328471 195.44672264 -62.41116909 197.77389318 -57.3215332 200.18823242 C-51.56044714 202.91630885 -45.71558009 205.37242538 -39.8125 207.7734375 C-37.62877464 208.66972336 -35.44588129 209.5680114 -33.26318359 210.46679688 C-31.79644004 211.07058257 -30.32933937 211.67350178 -28.86181641 212.27539062 C-24.49453738 214.06889204 -20.14758161 215.90340229 -15.8125 217.7734375 C-15.76222656 217.10441406 -15.71195313 216.43539062 -15.66015625 215.74609375 C-14.44451174 211.48293488 -12.02572747 208.61634578 -9.25 205.2109375 C-8.68224854 204.51218506 -8.11449707 203.81343262 -7.52954102 203.09350586 C-1.16368714 195.5689756 8.16274205 185.82280344 18.1875 183.7734375 C12.38826881 169.5363141 12.38826881 169.5363141 6.5 155.3359375 C3.32792969 147.75578327 0.31195445 140.1126839 -2.72583008 132.47802734 C-5.61474965 125.23389147 -8.57425462 118.01952895 -11.54492188 110.80859375 C-17.8125 95.54004738 -17.8125 95.54004738 -17.8125 92.7734375 C-18.76898438 92.93070312 -19.72546875 93.08796875 -20.7109375 93.25 C-36.87024565 95.5306457 -50.56482175 94.16585566 -64.125 84.5234375 C-76.43043457 74.68558347 -83.34496931 63.46539047 -85.8125 47.7734375 C-86.36538843 39.9120552 -86.21170739 32.31577339 -83.8125 24.7734375 C-83.44511719 23.57654297 -83.44511719 23.57654297 -83.0703125 22.35546875 C-78.66395465 9.77980144 -68.55586526 -0.38708806 -56.9375 -6.6015625 C-38.22745087 -15.30611127 -16.04417128 -12.7016356 0 0 Z " fill="#FDFEFD" transform="translate(458.8125,258.2265625)"/>
<path d="M0 0 C0.66 0.33 1.32 0.66 2 1 C-1.3 4.3 -4.6 7.6 -8 11 C-8.66 10.67 -9.32 10.34 -10 10 C-6.92118304 6.12948725 -3.99926986 2.97088618 0 0 Z " fill="#E8F4DC" transform="translate(271,555)"/>
<path d="" fill="#7C7C7C" transform="translate(0,0)"/>
<path d="" fill="#8A8A8A" transform="translate(0,0)"/>
<path d="" fill="#606060" transform="translate(0,0)"/>
<path d="" fill="#3B3B3B" transform="translate(0,0)"/>
<path d="" fill="#595959" transform="translate(0,0)"/>
<path d="" fill="#FFFFFF" transform="translate(0,0)"/>
<path d="" fill="#797979" transform="translate(0,0)"/>
<path d="" fill="#656565" transform="translate(0,0)"/>
<path d="" fill="#FFFFFF" transform="translate(0,0)"/>
</svg>
